<?xml version="1.0" encoding="utf-8"?>
<!-- Generator: Adobe Illustrator 16.0.0, SVG Export Plug-In . SVG Version: 6.00 Build 0)  -->
<!DOCTYPE svg PUBLIC "-//W3C//DTD SVG 1.1//EN" "http://www.w3.org/Graphics/SVG/1.1/DTD/svg11.dtd">
<svg version="1.1" id="Layer_1" xmlns="http://www.w3.org/2000/svg" xmlns:xlink="http://www.w3.org/1999/xlink" x="0px" y="0px"
	 width="625px" height="150px" viewBox="0 0 625 150" enable-background="new 0 0 625 150" xml:space="preserve">
<g>
	<path d="M58.268,43.333v-7h25.582v7h-8.652v42H66.92v-42H58.268z"/>
	<path d="M87.46,85.333v-49h8.276v21h9.405v-21h8.427v49h-8.427v-21h-9.405v21H87.46z"/>
	<path d="M119.587,85.333v-49h22.572v7h-14.296v13.65h11.361v7h-11.361v14.35h14.296v7H119.587z"/>
	<path d="M158.938,85.333v-49h8.276v42h13.619v7H158.938z"/>
	<path d="M183.766,73.573v-25.48c0-3.92,1.078-6.953,3.235-9.1c2.156-2.146,5.267-3.22,9.33-3.22c4.063,0,7.173,1.074,9.33,3.22
		c2.156,2.147,3.235,5.18,3.235,9.1v25.48c0,3.92-1.079,6.954-3.235,9.1c-2.157,2.147-5.267,3.22-9.33,3.22
		c-4.063,0-7.173-1.072-9.33-3.22C184.844,80.527,183.766,77.493,183.766,73.573z M192.042,74.063c0,3.22,1.43,4.829,4.289,4.829
		c2.859,0,4.289-1.609,4.289-4.829v-26.46c0-3.22-1.43-4.83-4.289-4.83c-2.859,0-4.289,1.61-4.289,4.83V74.063z"/>
	<path d="M212.959,73.573v-3.01h7.825v3.5c0,3.174,1.43,4.76,4.289,4.76c2.859,0,4.289-1.586,4.289-4.76
		c0-1.82-0.552-3.535-1.655-5.146c-1.104-1.61-2.445-3.068-4.025-4.375c-1.58-1.306-3.173-2.671-4.777-4.095
		c-1.606-1.423-2.96-3.196-4.063-5.32c-1.104-2.123-1.655-4.468-1.655-7.035c0-3.966,1.028-7.011,3.085-9.135
		c2.056-2.123,5.091-3.185,9.104-3.185c4.012,0,7.046,1.062,9.104,3.185c2.056,2.124,3.085,5.169,3.085,9.135v1.54h-7.825v-2.03
		c0-3.22-1.38-4.83-4.138-4.83c-2.759,0-4.138,1.61-4.138,4.83c0,1.354,0.301,2.637,0.903,3.85c0.602,1.214,1.379,2.31,2.333,3.29
		c0.952,0.98,2.005,1.949,3.16,2.905c1.153,0.957,2.294,1.96,3.423,3.01c1.128,1.05,2.169,2.17,3.123,3.36
		c0.952,1.19,1.73,2.602,2.333,4.235c0.602,1.634,0.903,3.407,0.903,5.32c0,3.967-1.054,7.012-3.16,9.135
		c-2.107,2.124-5.167,3.185-9.18,3.185c-4.013,0-7.072-1.061-9.179-3.185C214.012,80.585,212.959,77.54,212.959,73.573z"/>
	<path d="M239.97,43.333v-7h25.582v7h-8.652v42h-8.277v-42H239.97z"/>
	<path d="M280.9,74.693v-4.971c0-5.272,1.906-8.703,5.718-10.29c-3.813-1.493-5.718-4.853-5.718-10.08v-0.91
		c0-8.073,4.112-12.11,12.339-12.11h9.48v7h-9.33c-2.81,0-4.213,1.587-4.213,4.76v3.01c0,1.867,0.414,3.197,1.242,3.99
		c0.828,0.794,2.069,1.19,3.724,1.19h3.612v-5.46h8.276v5.46h2.182v7h-2.182v16.1c0,2.66,0.301,4.645,0.903,5.95h-8.427
		c-0.402-1.026-0.653-2.31-0.752-3.85c-1.456,2.939-4.014,4.409-7.675,4.409C283.959,85.893,280.9,82.16,280.9,74.693z
		 M289.176,74.063c0,3.22,1.43,4.829,4.289,4.829c2.709,0,4.139-1.423,4.289-4.27v-11.34h-3.16c-1.907,0-3.286,0.479-4.138,1.435
		c-0.854,0.957-1.279,2.556-1.279,4.795V74.063z"/>
	<path d="M321.228,43.333v-7h25.582v7h-8.652v42h-8.276v-42H321.228z"/>
	<path d="M350.421,85.333v-49h8.276v21h9.405v-21h8.427v49h-8.427v-21h-9.405v21H350.421z"/>
	<path d="M382.548,85.333v-49h22.572v7h-14.296v13.65h11.361v7h-11.361v14.35h14.296v7H382.548z"/>
	<path d="M421.898,85.333v-49h21.895v7h-13.618v14.77h10.685v7h-10.685v20.229H421.898z"/>
	<path d="M447.104,73.573v-25.48c0-3.92,1.078-6.953,3.235-9.1c2.156-2.146,5.268-3.22,9.33-3.22c4.063,0,7.173,1.074,9.33,3.22
		c2.156,2.147,3.235,5.18,3.235,9.1v25.48c0,3.92-1.079,6.954-3.235,9.1c-2.157,2.147-5.267,3.22-9.33,3.22
		c-4.063,0-7.174-1.072-9.33-3.22C448.182,80.527,447.104,77.493,447.104,73.573z M455.381,74.063c0,3.22,1.429,4.829,4.288,4.829
		s4.289-1.609,4.289-4.829v-26.46c0-3.22-1.43-4.83-4.289-4.83s-4.288,1.61-4.288,4.83V74.063z"/>
	<path d="M477.2,73.643v-37.31h8.276v37.8c0,3.174,1.43,4.76,4.288,4.76c2.859,0,4.289-1.586,4.289-4.76v-37.8h7.825v37.31
		c0,3.968-1.054,7.013-3.16,9.136c-2.106,2.124-5.167,3.185-9.18,3.185c-4.014,0-7.072-1.061-9.179-3.185
		C478.253,80.655,477.2,77.61,477.2,73.643z"/>
	<path d="M507.446,85.333v-49h10.383l8.503,29.33v-29.33h7.373v49h-8.502l-10.309-35.49v35.49H507.446z"/>
	<path d="M539.648,85.333v-49h13.092c8.226,0,12.34,4.037,12.34,12.11v24.78c0,8.074-4.114,12.11-12.34,12.11H539.648z
		 M547.925,78.333h4.665c2.809,0,4.214-1.586,4.214-4.76v-25.48c0-3.173-1.405-4.76-4.214-4.76h-4.665V78.333z"/>
</g>
<g>
	<rect width="27" height="150"/>
</g>
<g>
	<rect x="599" width="27" height="150"/>
</g>
<g>
	<rect x="12.5" y="123" width="600" height="27"/>
</g>
</svg>
