<?xml version="1.0" encoding="utf-8"?>
<!-- Generator: Adobe Illustrator 15.0.0, SVG Export Plug-In . SVG Version: 6.00 Build 0)  -->
<!DOCTYPE svg PUBLIC "-//W3C//DTD SVG 1.1//EN" "http://www.w3.org/Graphics/SVG/1.1/DTD/svg11.dtd">
<svg version="1.1" id="Layer_1" xmlns="http://www.w3.org/2000/svg" xmlns:xlink="http://www.w3.org/1999/xlink" x="0px" y="0px"
	 width="50px" height="34.488px" viewBox="0 0 50 34.488" enable-background="new 0 0 50 34.488" xml:space="preserve">
<g>
	<path d="M19.871,26.584c-2.179,0-3.952,1.773-3.952,3.951c0,2.18,1.773,3.953,3.952,3.953s3.952-1.773,3.952-3.953
		C23.823,28.357,22.049,26.584,19.871,26.584z"/>
	<g>
		<path d="M49.872,6.216c-0.252-0.317-0.635-0.502-1.04-0.502H12.466c-0.042-0.156-0.097-0.31-0.174-0.459l-2.125-4.066
			C9.784,0.458,9.028,0,8.205,0h-5.85C1.132,0,0.142,0.991,0.142,2.213c0,1.223,0.991,2.214,2.213,2.214h4.509l1.504,2.878
			c0.062,0.117,0.146,0.211,0.224,0.312l2.433,10.462c0,0,0.001,0.001,0.001,0.003l2.513,10.804
			c0.125,0.535,0.567,0.913,1.097,0.993c0.129-1.049,0.565-2.001,1.217-2.766l-1.854-7.972h7.443l0.938,6.747
			c1.477,0.799,2.527,2.282,2.732,4.025h8.863c0.175-1.498,0.979-2.8,2.138-3.644l0.99-7.128h7.552l-1.769,7.603
			c0.812,0.788,1.367,1.832,1.544,3.002c0.333-0.175,0.596-0.474,0.686-0.86l5.01-21.544C50.218,6.949,50.124,6.534,49.872,6.216z
			 M13.381,16.485L11.493,8.37h8.451l1.128,8.115H13.381z M33.293,27.258H25.25l-1.128-8.116h10.3L33.293,27.258z M34.79,16.485
			H23.752L22.625,8.37h13.292L34.79,16.485z M45.272,16.485h-7.801L38.6,8.37h8.561L45.272,16.485z"/>
		<path d="M39.214,26.584c-2.178,0-3.951,1.773-3.951,3.951c0,2.18,1.773,3.953,3.951,3.953c2.179,0,3.952-1.773,3.952-3.953
			C43.166,28.357,41.393,26.584,39.214,26.584z"/>
	</g>
</g>
</svg>
