<?xml version="1.0" encoding="utf-8"?>
<!-- Generator: Adobe Illustrator 15.0.0, SVG Export Plug-In . SVG Version: 6.00 Build 0)  -->
<!DOCTYPE svg PUBLIC "-//W3C//DTD SVG 1.1//EN" "http://www.w3.org/Graphics/SVG/1.1/DTD/svg11.dtd">
<svg version="1.1" id="Layer_1" xmlns="http://www.w3.org/2000/svg" xmlns:xlink="http://www.w3.org/1999/xlink" x="0px" y="0px"
	 width="50px" height="50px" viewBox="0 0 50 50" enable-background="new 0 0 50 50" xml:space="preserve">
<path d="M50,40.623C50,45.8,45.801,50,40.625,50H9.375C4.2,50,0,45.8,0,40.623V9.375C0,4.2,4.2,0,9.375,0h31.25
	C45.801,0,50,4.2,50,9.375V40.623z M43.295,18.589H36.85v-3.55c0-1.855,0.195-2.864,2.831-2.864h3.581v-7.13h-5.697
	c-6.836,0-9.245,3.453-9.245,9.278v4.267h-4.264v7.128h4.264v20.672h8.53V25.717h5.695L43.295,18.589z"/>
<path d="M-14.669,32.125c0,0.476-0.382,0.857-0.857,0.857h-10.289c-0.476,0-0.857-0.382-0.857-0.857v-8.574
	c0-0.476,0.382-0.857,0.857-0.857h10.289c0.476,0,0.857,0.382,0.857,0.857V32.125z M-15.527,25.266v-0.791v-0.924h-5.546
	l-0.429,0.857h-4.314v0.857H-15.527z M-15.527,32.125v-0.857h-10.289v0.857H-15.527z M-22.386,23.979v-0.857h-2.572v0.857H-22.386z
	 M-20.671,25.708c-1.42,0-2.572,1.153-2.572,2.573s1.152,2.572,2.572,2.572s2.572-1.152,2.572-2.572S-19.251,25.708-20.671,25.708z
	 M-20.671,29.995c-0.944,0-1.715-0.771-1.715-1.715s0.771-1.715,1.715-1.715s1.715,0.771,1.715,1.715S-19.727,29.995-20.671,29.995z
	 M-20.671,27.195c-0.589,0-1.072,0.481-1.072,1.071c0,0.12,0.094,0.214,0.214,0.214s0.214-0.094,0.214-0.214
	c0-0.355,0.288-0.644,0.643-0.644c0.121,0,0.214-0.094,0.214-0.214S-20.551,27.195-20.671,27.195z"/>
</svg>
