<?xml version="1.0" encoding="utf-8"?>
<!-- Generator: Adobe Illustrator 15.0.0, SVG Export Plug-In . SVG Version: 6.00 Build 0)  -->
<!DOCTYPE svg PUBLIC "-//W3C//DTD SVG 1.1//EN" "http://www.w3.org/Graphics/SVG/1.1/DTD/svg11.dtd">
<svg version="1.1" id="Layer_1" xmlns="http://www.w3.org/2000/svg" xmlns:xlink="http://www.w3.org/1999/xlink" x="0px" y="0px"
	 width="50px" height="42.857px" viewBox="0 0 50 42.857" enable-background="new 0 0 50 42.857" xml:space="preserve">
<path d="M50,39.286c0,1.98-1.59,3.571-3.571,3.571H3.571C1.59,42.857,0,41.267,0,39.286V3.572C0,1.591,1.59,0,3.571,0h42.857
	C48.41,0,50,1.591,50,3.572V39.286z M46.429,10.714V7.422v-3.85H23.326l-1.786,3.571H3.571v3.571H46.429z M46.429,39.286v-3.571
	H3.571v3.571H46.429z M17.857,5.357V1.786H7.143v3.572H17.857z M25,12.555c-5.915,0-10.714,4.802-10.714,10.716
	c0,5.914,4.8,10.714,10.714,10.714c5.914,0,10.715-4.8,10.715-10.714C35.715,17.357,30.914,12.555,25,12.555z M25,30.414
	c-3.934,0-7.143-3.209-7.143-7.143s3.209-7.143,7.143-7.143s7.143,3.209,7.143,7.143S28.934,30.414,25,30.414z M25,18.752
	c-2.455,0-4.464,2.006-4.464,4.463c0,0.5,0.391,0.891,0.893,0.891s0.893-0.391,0.893-0.891c0-1.481,1.2-2.681,2.679-2.681
	c0.502,0,0.893-0.391,0.893-0.892C25.893,19.143,25.502,18.752,25,18.752z"/>
</svg>
