<?xml version="1.0" encoding="utf-8"?>
<!-- Generator: Adobe Illustrator 16.0.0, SVG Export Plug-In . SVG Version: 6.00 Build 0)  -->
<!DOCTYPE svg PUBLIC "-//W3C//DTD SVG 1.1//EN" "http://www.w3.org/Graphics/SVG/1.1/DTD/svg11.dtd">
<svg version="1.1" id="Layer_1" xmlns="http://www.w3.org/2000/svg" xmlns:xlink="http://www.w3.org/1999/xlink" x="0px" y="0px"
	 width="133.197px" height="26px" viewBox="245.902 47.544 133.197 26" enable-background="new 245.902 47.544 133.197 26"
	 xml:space="preserve">
<g>
	<rect x="243.25" y="44.5" fill="#FFFFFF" width="140.5" height="32.5"/>
	<g>
		<path d="M250.562,56.257v-1.711h6.252v1.711H254.7v10.266h-2.023V56.257H250.562z"/>
		<path d="M257.696,66.523V54.546h2.023v5.133h2.298v-5.133h2.06v11.977h-2.06v-5.133h-2.298v5.133H257.696z"/>
		<path d="M265.549,66.523V54.546h5.518v1.711h-3.495v3.337h2.777v1.71h-2.777v3.508h3.495v1.711H265.549z"/>
		<path d="M275.167,66.523V54.546h2.023v10.266h3.329v1.711H275.167z"/>
		<path d="M281.236,63.649v-6.228c0-0.958,0.264-1.7,0.791-2.225c0.527-0.524,1.287-0.787,2.281-0.787
			c0.993,0,1.753,0.263,2.281,0.787c0.526,0.524,0.791,1.267,0.791,2.225v6.228c0,0.958-0.265,1.7-0.791,2.224
			c-0.527,0.525-1.288,0.787-2.281,0.787c-0.994,0-1.752-0.262-2.281-0.787C281.5,65.349,281.236,64.607,281.236,63.649z
			 M283.259,63.769c0,0.788,0.35,1.181,1.048,1.181s1.048-0.393,1.048-1.181v-6.467c0-0.787-0.35-1.181-1.048-1.181
			s-1.048,0.394-1.048,1.181V63.769z"/>
		<path d="M288.372,63.649v-0.735h1.913v0.854c0,0.776,0.35,1.164,1.049,1.164c0.698,0,1.047-0.388,1.047-1.164
			c0-0.444-0.134-0.863-0.404-1.258c-0.27-0.393-0.598-0.749-0.984-1.069s-0.775-0.653-1.168-1.001
			c-0.393-0.348-0.723-0.782-0.993-1.301s-0.404-1.092-0.404-1.719c0-0.969,0.251-1.713,0.754-2.232
			c0.502-0.519,1.245-0.779,2.226-0.779s1.723,0.26,2.225,0.779c0.502,0.52,0.754,1.263,0.754,2.232v0.377h-1.912v-0.497
			c0-0.787-0.338-1.181-1.012-1.181c-0.675,0-1.011,0.394-1.011,1.181c0,0.331,0.074,0.645,0.221,0.941
			c0.147,0.297,0.337,0.564,0.571,0.804c0.232,0.24,0.489,0.477,0.771,0.71c0.282,0.233,0.561,0.479,0.837,0.735
			c0.275,0.257,0.53,0.531,0.763,0.821c0.232,0.292,0.422,0.636,0.57,1.035c0.147,0.4,0.221,0.833,0.221,1.301
			c0,0.97-0.258,1.714-0.772,2.232c-0.515,0.52-1.263,0.778-2.244,0.778c-0.981,0-1.729-0.259-2.244-0.778
			C288.629,65.363,288.372,64.619,288.372,63.649z"/>
		<path d="M294.974,56.257v-1.711h6.253v1.711h-2.115v10.266h-2.023V56.257H294.974z"/>
		<path d="M304.979,63.923v-1.215c0-1.289,0.466-2.127,1.398-2.515c-0.933-0.365-1.398-1.186-1.398-2.464v-0.223
			c0-1.973,1.005-2.96,3.016-2.96h2.317v1.711h-2.281c-0.687,0-1.03,0.388-1.03,1.164v0.735c0,0.457,0.102,0.782,0.304,0.976
			c0.203,0.194,0.506,0.292,0.91,0.292h0.884v-1.335h2.022v1.335h0.533v1.71h-0.533v3.935c0,0.65,0.074,1.136,0.22,1.454h-2.06
			c-0.099-0.25-0.16-0.564-0.183-0.94c-0.356,0.718-0.981,1.077-1.876,1.077C305.726,66.66,304.979,65.749,304.979,63.923z
			 M307,63.769c0,0.788,0.351,1.181,1.049,1.181c0.663,0,1.012-0.348,1.049-1.044v-2.771h-0.772c-0.467,0-0.803,0.117-1.012,0.351
			c-0.209,0.234-0.313,0.625-0.313,1.172L307,63.769L307,63.769z"/>
		<path d="M314.835,56.257v-1.711h6.254v1.711h-2.114v10.266h-2.023V56.257H314.835z"/>
		<path d="M321.971,66.523V54.546h2.022v5.133h2.299v-5.133h2.061v11.977h-2.061v-5.133h-2.299v5.133H321.971z"/>
		<path d="M329.823,66.523V54.546h5.518v1.711h-3.494v3.337h2.776v1.71h-2.776v3.508h3.494v1.711H329.823z"/>
		<path d="M339.442,66.523V54.546h5.351v1.711h-3.329v3.61h2.612v1.711h-2.612v4.944L339.442,66.523L339.442,66.523z"/>
		<path d="M345.603,63.649v-6.228c0-0.958,0.264-1.7,0.79-2.225c0.529-0.524,1.288-0.787,2.281-0.787s1.754,0.263,2.28,0.787
			c0.527,0.524,0.791,1.267,0.791,2.225v6.228c0,0.958-0.264,1.7-0.791,2.224c-0.526,0.525-1.287,0.787-2.28,0.787
			c-0.994,0-1.752-0.262-2.281-0.787C345.866,65.349,345.603,64.607,345.603,63.649z M347.626,63.769
			c0,0.788,0.349,1.181,1.048,1.181s1.049-0.393,1.049-1.181v-6.467c0-0.787-0.35-1.181-1.049-1.181s-1.048,0.394-1.048,1.181
			V63.769z"/>
		<path d="M352.959,63.666v-9.119h2.021v9.24c0,0.775,0.352,1.163,1.05,1.163c0.699,0,1.047-0.388,1.047-1.163v-9.24h1.912v9.119
			c0,0.971-0.256,1.715-0.771,2.233c-0.515,0.519-1.265,0.779-2.244,0.779c-0.982,0-1.729-0.26-2.243-0.779
			C353.216,65.38,352.959,64.635,352.959,63.666z"/>
		<path d="M360.353,66.523V54.546h2.536l2.079,7.169v-7.169h1.802v11.977h-2.078l-2.52-8.674v8.674H360.353z"/>
		<path d="M368.224,66.523V54.546h3.199c2.011,0,3.016,0.988,3.016,2.96v6.058c0,1.972-1.005,2.959-3.016,2.959H368.224z
			 M370.245,64.813h1.141c0.686,0,1.03-0.388,1.03-1.164v-6.228c0-0.776-0.345-1.164-1.03-1.164h-1.141V64.813z"/>
	</g>
</g>
</svg>
