<?xml version="1.0" encoding="utf-8"?>
<!-- Generator: Adobe Illustrator 15.0.0, SVG Export Plug-In . SVG Version: 6.00 Build 0)  -->
<!DOCTYPE svg PUBLIC "-//W3C//DTD SVG 1.1//EN" "http://www.w3.org/Graphics/SVG/1.1/DTD/svg11.dtd">
<svg version="1.1" id="Layer_1" xmlns="http://www.w3.org/2000/svg" xmlns:xlink="http://www.w3.org/1999/xlink" x="0px" y="0px"
	 width="50px" height="50px" viewBox="0 0 50 50" enable-background="new 0 0 50 50" xml:space="preserve">
<path d="M50,40.622C50,45.801,45.801,50,40.624,50H9.375C4.2,50,0,45.801,0,40.622V9.375C0,4.2,4.2,0,9.375,0h31.249
	C45.801,0,50,4.2,50,9.375V40.622z M37.728,16.795c1.434-0.845,2.506-2.211,3.027-3.806c-1.335,0.781-2.799,1.367-4.36,1.659
	c-1.238-1.333-3.028-2.147-4.981-2.147c-3.777,0-6.835,3.061-6.835,6.834c0,0.522,0.031,1.077,0.161,1.566
	c-5.697-0.294-10.741-2.995-14.127-7.164c-0.586,1.011-0.945,2.213-0.945,3.453c0,2.373,1.108,4.456,2.964,5.694
	c-1.139-0.033-2.214-0.356-3.255-0.845c0,0,0,0.033,0,0.066c0,3.317,2.506,6.083,5.631,6.707c-0.586,0.161-1.042,0.256-1.659,0.256
	c-0.425,0-0.847-0.062-1.27-0.129c0.878,2.701,3.384,4.689,6.381,4.75c-2.345,1.827-5.275,2.934-8.498,2.934
	c-0.553,0-1.105-0.033-1.627-0.1c3.028,1.922,6.608,3.061,10.481,3.061c12.566,0,19.466-10.416,19.466-19.466
	c0-0.294,0-0.583-0.03-0.878c1.333-0.944,2.505-2.15,3.417-3.549C40.431,16.244,39.128,16.6,37.728,16.795z"/>
<path d="M-28.35,31.053c0,1.065-0.864,1.93-1.929,1.93h-6.431c-1.065,0-1.929-0.864-1.929-1.93v-6.43
	c0-1.065,0.864-1.929,1.929-1.929h6.431c1.065,0,1.929,0.864,1.929,1.929V31.053z M-29.729,26.519h-1.326v-0.73
	c0-0.382,0.04-0.589,0.583-0.589h0.737v-1.467h-1.172c-1.407,0-1.902,0.71-1.902,1.909v0.878h-0.877v1.467h0.877v4.254h1.755v-4.254
	h1.172L-29.729,26.519z"/>
<path d="M-14.669,32.125c0,0.476-0.382,0.857-0.857,0.857h-10.289c-0.476,0-0.857-0.382-0.857-0.857v-8.574
	c0-0.476,0.382-0.857,0.857-0.857h10.289c0.476,0,0.857,0.382,0.857,0.857V32.125z M-15.527,25.266v-0.791v-0.924h-5.546
	l-0.429,0.857h-4.314v0.857H-15.527z M-15.527,32.125v-0.857h-10.289v0.857H-15.527z M-22.386,23.979v-0.857h-2.572v0.857H-22.386z
	 M-20.671,25.708c-1.42,0-2.572,1.153-2.572,2.573s1.152,2.572,2.572,2.572s2.572-1.152,2.572-2.572S-19.251,25.708-20.671,25.708z
	 M-20.671,29.995c-0.944,0-1.715-0.771-1.715-1.715s0.771-1.715,1.715-1.715s1.715,0.771,1.715,1.715S-19.727,29.995-20.671,29.995z
	 M-20.671,27.195c-0.589,0-1.072,0.481-1.072,1.071c0,0.12,0.094,0.214,0.214,0.214s0.214-0.094,0.214-0.214
	c0-0.355,0.288-0.644,0.643-0.644c0.121,0,0.214-0.094,0.214-0.214S-20.551,27.195-20.671,27.195z"/>
</svg>
